<?xml version="1.0" encoding="UTF-8" ?>
<!DOCTYPE svg PUBLIC "-//W3C//DTD SVG 1.1//EN" "http://www.w3.org/Graphics/SVG/1.1/DTD/svg11.dtd">
<svg width="436pt" height="411pt" viewBox="0 0 436 411" version="1.1" xmlns="http://www.w3.org/2000/svg">
<g id="#820410ff">
<path fill="#820410" opacity="1.00" d=" M 58.24 1.22 C 62.26 -1.50 67.86 2.41 67.53 6.97 C 67.98 11.49 62.27 15.33 58.35 12.77 C 54.35 10.43 53.71 3.34 58.24 1.22 Z" />
<path fill="#820410" opacity="1.00" d=" M 45.07 5.77 C 47.51 5.49 49.58 7.39 50.65 9.42 C 58.04 22.25 66.72 34.40 77.00 45.08 C 78.41 46.52 80.10 48.71 78.79 50.75 C 77.23 54.36 72.41 54.39 69.43 52.68 C 63.65 49.28 59.43 43.90 55.46 38.61 C 49.94 30.89 44.84 22.79 41.07 14.06 C 39.35 10.77 41.53 6.55 45.07 5.77 Z" />
<path fill="#820410" opacity="1.00" d=" M 68.12 14.20 C 70.67 12.81 73.58 14.75 74.64 17.13 C 77.73 22.94 81.09 28.61 84.95 33.95 C 86.19 35.79 87.84 37.61 87.89 39.97 C 87.96 42.27 85.66 43.32 84.22 44.66 C 81.86 44.50 79.36 44.20 77.55 42.50 C 71.96 37.70 67.23 31.79 63.97 25.18 C 61.79 21.17 63.89 15.78 68.12 14.20 Z" />
<path fill="#820410" opacity="1.00" d=" M 121.46 39.61 C 131.45 25.86 151.34 22.19 166.59 28.50 C 174.18 31.67 181.66 37.50 183.24 46.02 C 185.81 61.08 180.15 75.80 179.61 90.76 C 182.22 87.58 184.32 83.92 187.49 81.25 C 190.90 81.80 193.49 85.20 197.29 84.86 C 195.78 82.67 193.67 80.98 192.19 78.79 C 191.33 75.70 194.62 74.14 196.53 72.46 C 209.79 62.47 226.36 54.59 243.36 56.98 C 241.01 57.57 238.67 58.15 236.32 58.73 C 236.26 59.17 236.14 60.04 236.08 60.48 C 238.40 60.47 240.74 60.33 243.05 60.64 C 246.00 62.08 247.22 65.39 249.39 67.67 C 251.66 70.38 255.35 71.56 257.34 74.53 C 258.41 77.06 258.86 80.22 257.65 82.76 C 255.63 83.64 253.26 83.75 251.53 85.23 C 254.04 85.78 256.63 85.99 259.08 86.78 C 263.72 91.19 266.07 97.89 271.07 101.82 C 277.05 99.29 283.57 98.49 290.03 98.47 C 291.57 99.20 292.86 100.34 294.24 101.33 C 291.91 101.78 289.57 102.16 287.23 102.55 C 287.23 103.10 287.25 104.19 287.26 104.74 C 288.82 105.00 290.39 105.70 292.00 105.37 C 293.46 104.47 294.73 103.30 296.20 102.41 C 301.26 103.01 306.33 104.73 311.44 103.21 C 312.80 110.13 314.79 116.95 315.43 124.00 C 315.91 139.36 314.13 155.26 307.01 169.11 C 300.61 181.90 289.46 191.87 276.76 198.22 C 282.44 200.31 288.21 202.38 293.28 205.77 C 300.50 210.28 306.37 216.68 310.85 223.88 C 317.85 212.28 329.59 204.14 342.41 200.17 C 360.25 194.61 379.86 195.33 397.51 201.29 C 404.47 203.58 410.78 207.37 417.23 210.78 C 427.25 216.31 434.05 226.68 436.00 237.87 L 436.00 245.37 C 432.80 258.95 419.05 267.63 405.72 268.63 C 412.86 271.86 418.93 277.07 424.05 282.92 C 431.27 291.46 434.27 302.95 433.71 313.99 C 434.14 327.89 429.06 342.22 418.62 351.65 C 406.11 363.14 388.63 367.79 371.95 367.68 C 353.08 367.76 334.08 361.83 319.27 349.99 C 317.45 354.28 314.78 358.24 311.01 361.06 C 299.17 370.26 281.75 371.81 268.53 364.74 C 263.84 362.41 260.77 358.11 257.78 354.01 C 253.94 355.42 250.93 358.36 247.29 360.18 C 236.26 366.26 223.06 370.40 210.50 367.15 C 203.80 365.48 198.39 361.04 193.20 356.73 C 186.75 366.13 174.76 369.19 163.95 369.33 C 153.83 369.07 143.31 366.35 135.61 359.47 C 132.81 357.11 131.46 353.60 129.19 350.81 C 127.93 349.33 125.79 349.53 124.22 350.35 C 122.04 351.13 121.48 353.62 120.44 355.44 C 118.40 360.13 114.45 363.63 110.17 366.25 C 99.54 372.82 86.19 374.58 74.14 371.45 C 66.09 369.11 58.28 364.01 54.64 356.22 C 50.81 348.11 52.58 338.94 54.21 330.52 C 58.99 295.45 55.75 259.97 52.11 224.97 C 51.00 215.32 56.28 206.01 64.09 200.63 C 51.75 188.73 43.99 172.67 40.93 155.91 C 37.55 136.77 38.97 116.48 46.67 98.50 C 52.80 83.96 63.85 70.91 78.71 64.88 C 90.62 59.75 104.06 60.53 116.51 62.97 C 116.22 54.98 116.37 46.25 121.46 39.61 M 137.93 41.99 C 134.02 44.30 130.56 47.94 129.82 52.57 C 128.97 58.72 129.67 64.95 130.41 71.07 C 130.91 73.86 129.68 76.86 127.24 78.34 C 124.43 79.48 121.39 78.65 118.69 77.61 C 107.84 73.63 95.50 72.35 84.53 76.63 C 73.89 80.61 65.80 89.49 60.68 99.42 C 52.86 114.57 50.92 132.18 52.98 148.96 C 55.14 164.54 61.47 180.06 73.06 191.00 C 74.84 192.60 76.56 194.48 78.87 195.29 C 91.67 193.10 105.90 196.85 114.67 206.77 C 126.92 194.82 146.72 191.40 162.01 199.36 C 166.59 198.57 170.52 194.36 171.74 189.86 C 173.58 183.94 171.64 177.84 170.75 171.95 C 170.36 167.57 176.71 165.37 179.45 168.53 C 182.67 172.91 180.36 179.54 184.58 183.41 C 192.65 192.16 203.04 198.67 214.39 202.25 C 216.53 202.79 218.86 204.05 221.03 202.94 C 235.33 196.46 251.55 194.08 267.09 196.47 C 268.66 196.73 270.29 196.56 271.70 195.77 C 279.12 192.30 286.00 187.62 291.67 181.69 C 303.32 170.05 309.50 153.58 309.61 137.21 C 307.81 135.69 305.65 134.85 303.28 135.34 C 303.38 137.78 304.61 139.92 306.12 141.77 C 307.67 141.57 307.86 139.67 308.75 138.70 C 308.84 141.69 309.80 146.53 306.09 147.76 C 302.53 147.72 302.27 143.42 301.35 140.87 C 300.66 137.49 298.05 133.66 294.12 134.35 C 289.46 135.27 287.08 140.14 286.29 144.40 C 283.91 144.71 278.72 142.22 278.96 146.23 C 281.55 146.54 284.14 146.88 286.72 147.31 C 286.70 150.59 286.64 153.86 286.59 157.14 C 285.84 155.65 284.87 153.13 282.74 154.53 C 281.53 158.58 283.64 162.40 286.47 165.14 C 286.29 170.42 286.06 175.72 285.45 180.96 C 284.91 183.29 283.82 186.38 281.09 186.77 C 277.65 187.55 274.56 184.74 273.58 181.66 C 271.97 176.91 273.19 171.82 272.25 166.96 C 271.22 164.63 268.88 161.56 265.98 162.83 C 261.03 164.69 259.57 171.39 254.04 172.26 C 249.91 172.42 246.16 170.02 242.01 170.13 C 237.34 169.58 233.24 172.08 228.96 173.42 C 227.90 173.02 226.85 172.63 225.79 172.25 C 222.85 167.75 223.96 162.03 221.70 157.32 C 220.11 154.14 215.58 155.72 213.73 157.85 C 213.28 161.13 213.27 164.46 213.12 167.76 C 212.84 167.69 212.27 167.54 211.98 167.46 C 210.70 165.51 209.04 163.63 206.44 164.23 C 206.01 167.53 208.00 170.38 210.97 171.66 C 208.08 171.77 204.45 171.70 203.23 168.47 C 200.32 161.01 205.17 152.58 201.77 145.26 C 198.78 140.68 192.55 145.58 188.84 142.06 C 188.52 145.07 188.76 148.35 187.02 150.99 C 185.58 152.42 183.52 151.51 181.81 151.26 C 180.45 148.24 180.62 144.91 180.25 141.70 C 180.67 143.19 181.09 145.23 183.20 144.31 C 184.03 140.89 184.65 136.66 182.29 133.71 C 181.13 132.01 178.57 131.76 176.92 132.85 C 173.88 135.94 175.42 141.16 172.04 144.05 C 169.93 142.31 169.45 139.52 169.28 136.95 C 168.90 130.23 168.93 123.40 170.76 116.87 C 171.36 109.71 173.48 102.73 176.89 96.41 C 174.86 96.65 172.74 97.16 170.74 96.47 C 168.23 95.37 166.66 92.70 166.68 89.99 C 166.77 76.57 171.88 63.56 170.68 50.08 C 170.70 46.68 167.96 44.30 165.37 42.57 C 157.26 37.34 146.27 37.19 137.93 41.99 M 217.65 64.38 C 217.54 65.01 217.31 66.27 217.20 66.90 C 218.97 67.82 220.84 68.55 222.84 68.76 C 222.58 66.15 219.82 65.06 217.65 64.38 M 236.58 67.00 C 235.80 68.82 235.07 70.66 234.42 72.54 C 234.92 72.60 235.92 72.73 236.41 72.79 C 237.50 71.02 240.30 67.48 236.58 67.00 M 205.73 72.86 C 205.62 73.36 205.38 74.35 205.27 74.85 C 207.81 74.36 210.17 73.28 212.51 72.20 C 212.48 71.75 212.42 70.83 212.39 70.37 C 209.88 70.20 207.77 71.61 205.73 72.86 M 246.52 72.08 C 246.52 72.62 246.52 73.72 246.52 74.26 C 248.68 75.91 251.15 77.13 253.94 76.94 C 253.95 73.30 249.16 73.12 246.52 72.08 M 222.61 75.59 C 222.59 76.01 222.55 76.83 222.53 77.25 C 224.77 78.35 227.21 78.84 229.68 78.31 C 229.02 75.26 224.96 75.91 222.61 75.59 M 230.69 83.80 C 230.58 84.29 230.37 85.26 230.27 85.75 C 233.67 86.01 240.03 86.04 239.85 81.26 C 236.59 81.12 233.43 82.06 230.69 83.80 M 202.26 82.59 C 202.34 83.01 202.49 83.83 202.57 84.25 C 204.78 84.92 207.04 85.51 209.37 85.41 C 209.44 84.98 209.59 84.11 209.67 83.67 C 207.29 82.78 204.77 82.54 202.26 82.59 M 212.07 90.02 C 214.75 92.54 221.07 91.99 220.88 87.47 C 217.76 87.48 214.50 87.86 212.07 90.02 M 240.03 89.32 C 240.99 92.36 244.25 93.61 246.85 94.94 C 247.28 91.26 243.22 89.22 240.03 89.32 M 191.00 93.13 C 191.94 95.97 192.73 101.05 196.62 100.62 C 195.19 97.95 194.89 92.98 191.00 93.13 M 235.31 101.69 C 237.11 98.80 235.12 94.80 233.85 91.94 C 232.67 94.94 230.32 101.49 235.31 101.69 M 180.38 94.11 C 180.58 96.15 180.61 99.05 182.94 99.87 C 183.66 98.91 184.28 97.90 184.93 96.90 C 183.70 95.50 182.43 93.96 180.38 94.11 M 252.47 101.42 C 253.02 101.51 254.12 101.67 254.67 101.76 C 256.59 99.68 259.02 97.89 260.01 95.13 C 256.62 95.42 253.06 97.93 252.47 101.42 M 208.18 96.94 C 208.19 97.56 208.23 98.80 208.24 99.42 C 210.06 100.52 211.96 101.53 214.08 101.91 C 213.38 99.13 210.31 98.36 208.18 96.94 M 223.11 100.41 C 224.58 101.85 225.84 103.78 228.05 104.08 C 227.90 101.68 226.36 99.86 224.93 98.09 C 224.29 98.85 223.69 99.62 223.11 100.41 M 231.12 106.41 C 224.12 109.81 219.07 116.27 216.30 123.43 C 214.19 123.15 212.06 123.24 210.00 123.74 C 211.50 126.13 213.96 127.50 216.54 128.41 C 216.87 136.11 219.66 144.20 226.25 148.71 C 232.80 153.77 241.19 154.71 249.14 155.38 C 246.77 157.55 243.97 159.76 243.51 163.17 C 247.25 162.05 251.35 158.21 250.36 153.98 C 253.86 152.05 257.51 150.34 260.85 148.12 C 265.98 143.93 269.33 137.61 269.67 130.96 C 273.09 131.84 276.48 133.29 280.10 132.80 C 278.88 128.01 272.09 129.95 269.67 126.25 C 269.49 118.85 264.59 112.41 258.85 108.14 C 250.88 102.46 239.75 101.90 231.12 106.41 M 264.13 109.85 C 266.34 109.31 268.13 107.89 269.87 106.51 C 269.42 105.75 269.39 104.26 268.15 104.63 C 266.30 105.86 263.92 107.29 264.13 109.85 M 181.86 110.09 C 183.20 110.50 184.54 110.90 185.88 111.31 C 187.43 110.64 188.98 109.97 190.52 109.29 C 190.56 108.80 190.64 107.83 190.67 107.34 C 187.47 107.00 183.97 107.33 181.86 110.09 M 275.36 110.39 C 275.44 112.89 275.87 115.37 276.55 117.79 C 277.04 117.73 278.02 117.62 278.52 117.57 C 278.17 115.18 277.79 112.81 277.39 110.44 C 276.89 110.42 275.87 110.40 275.36 110.39 M 287.04 110.95 C 285.63 113.47 285.41 116.41 285.62 119.24 C 289.77 118.60 289.25 113.54 290.55 110.54 C 289.39 110.46 287.83 109.63 287.04 110.95 M 298.09 117.05 C 302.00 117.26 303.26 113.01 302.91 109.84 C 299.58 110.29 297.91 114.00 298.09 117.05 M 199.14 117.71 C 199.69 117.73 200.78 117.75 201.33 117.76 C 202.55 115.69 203.88 113.55 203.66 111.04 C 200.95 112.10 198.80 114.69 199.14 117.71 M 211.19 112.09 C 211.96 114.51 212.88 116.88 213.90 119.21 C 214.42 119.38 215.46 119.72 215.99 119.89 C 215.60 116.88 215.34 111.75 211.19 112.09 M 304.39 117.65 C 304.47 118.17 304.62 119.23 304.70 119.75 C 307.22 119.20 309.40 117.78 311.47 116.29 C 311.44 115.82 311.38 114.88 311.34 114.40 C 308.63 114.43 306.51 116.19 304.39 117.65 M 171.16 116.80 C 171.20 120.37 175.31 118.55 176.89 117.07 C 176.55 114.06 172.98 116.85 171.16 116.80 M 190.12 124.80 C 191.80 125.18 192.52 123.10 193.60 122.19 C 192.60 120.87 191.60 119.55 190.59 118.23 C 189.45 120.16 188.64 122.84 190.12 124.80 M 296.94 121.98 C 297.19 125.42 301.31 125.84 303.92 126.76 C 304.25 122.94 299.68 122.61 296.94 121.98 M 173.13 129.14 C 174.10 129.60 175.06 130.06 176.03 130.53 C 176.89 129.79 179.30 129.11 178.24 127.67 C 176.98 125.08 173.73 127.09 173.13 129.14 M 284.51 127.49 C 283.89 130.21 287.15 132.60 289.65 132.86 C 289.67 130.04 287.83 126.46 284.51 127.49 M 193.10 132.64 C 195.45 132.17 197.68 131.25 199.86 130.27 C 199.77 129.75 199.58 128.72 199.49 128.20 C 196.85 128.54 193.83 129.83 193.10 132.64 M 202.18 137.20 C 202.36 137.79 202.72 138.96 202.89 139.55 C 204.95 138.92 206.78 137.76 208.60 136.64 C 208.54 136.16 208.42 135.20 208.36 134.71 C 207.80 134.68 206.68 134.62 206.12 134.58 C 204.81 135.46 203.49 136.33 202.18 137.20 M 208.50 144.06 C 209.89 146.39 212.17 148.59 215.01 147.11 C 213.49 145.51 211.90 143.98 210.32 142.44 C 209.53 142.79 208.54 143.01 208.50 144.06 M 260.76 148.69 C 261.77 153.27 266.79 150.35 269.60 149.35 C 269.65 148.83 269.76 147.78 269.81 147.25 C 266.71 146.97 263.69 147.77 260.76 148.69 M 223.41 150.69 C 223.28 152.40 223.23 154.11 223.21 155.83 C 223.80 155.73 224.99 155.54 225.59 155.44 C 225.78 153.50 224.81 151.93 223.41 150.69 M 269.39 153.54 C 267.56 153.73 268.34 155.92 269.76 156.19 C 271.13 157.69 275.27 155.71 273.14 153.97 C 271.97 153.44 270.64 153.22 269.39 153.54 M 206.17 159.47 C 208.93 158.85 214.14 158.79 213.61 154.89 C 210.49 154.97 207.47 156.55 206.17 159.47 M 233.29 160.19 C 233.40 160.79 233.64 161.97 233.76 162.56 C 236.54 162.99 238.47 160.66 240.60 159.29 C 240.49 158.90 240.27 158.12 240.16 157.73 C 237.49 157.01 235.34 158.77 233.29 160.19 M 253.12 168.66 C 253.69 168.68 254.83 168.74 255.40 168.77 C 255.87 167.23 256.34 165.70 256.74 164.14 C 254.32 164.21 253.66 166.76 253.12 168.66 M 226.19 168.20 C 226.52 169.38 227.22 171.15 228.86 170.44 C 231.22 170.24 233.51 169.58 235.79 168.97 C 235.76 168.39 235.69 167.23 235.66 166.66 C 232.46 166.24 228.84 166.01 226.19 168.20 M 279.05 179.73 C 280.28 179.95 281.02 179.45 281.29 178.22 C 280.89 175.52 279.59 173.08 277.89 170.98 C 274.81 173.44 276.72 177.52 279.05 179.73 M 332.11 214.16 C 324.46 218.82 318.73 226.09 315.08 234.20 C 313.08 235.19 310.84 235.62 308.84 234.36 C 306.45 227.18 301.12 221.35 295.31 216.71 C 279.72 204.84 258.51 203.00 239.92 207.51 C 227.48 210.76 215.15 216.74 206.86 226.83 C 199.17 238.53 209.46 255.79 222.95 256.38 C 226.11 256.21 228.72 254.08 230.99 252.07 C 235.94 247.31 240.53 242.10 246.24 238.21 C 251.01 234.98 257.20 233.35 262.84 234.95 C 268.90 237.19 271.13 244.16 271.66 250.04 C 271.89 255.42 272.49 260.89 271.43 266.23 C 270.34 266.63 269.23 266.95 268.10 267.18 C 249.90 265.38 230.91 266.70 213.97 274.06 C 200.05 280.15 188.39 292.51 185.39 307.68 C 184.27 307.75 183.17 307.75 182.06 307.68 C 180.94 306.70 181.17 304.96 180.78 303.64 C 178.86 291.19 177.60 278.65 176.59 266.10 C 176.14 255.75 176.22 245.30 174.35 235.09 C 172.60 225.46 166.76 216.77 158.75 211.22 C 151.23 206.19 141.15 206.16 133.08 209.90 C 125.29 213.30 119.31 219.81 115.23 227.14 C 112.33 231.04 110.56 235.92 106.82 239.09 C 106.53 232.67 105.80 226.28 105.35 219.87 C 105.20 217.53 104.14 215.22 102.21 213.84 C 96.50 208.80 88.30 207.69 81.00 208.90 C 75.96 209.97 70.60 212.17 67.82 216.78 C 65.21 221.10 66.70 226.23 67.19 230.91 C 71.08 264.57 73.55 298.72 69.17 332.47 C 68.35 337.56 66.64 342.69 67.57 347.90 C 68.22 351.54 71.43 353.93 74.45 355.63 C 83.54 360.18 94.80 358.59 103.21 353.26 C 106.31 351.38 108.99 347.86 108.13 344.05 C 106.21 334.44 104.98 324.69 104.38 314.91 C 102.89 296.15 102.21 277.32 102.53 258.49 C 107.56 253.16 112.35 247.19 119.13 244.01 C 123.93 241.51 130.46 241.60 134.54 245.46 C 138.29 249.06 139.91 254.24 140.91 259.21 C 142.58 268.98 142.70 278.97 141.77 288.82 C 141.40 304.28 139.14 319.61 138.01 335.02 C 137.71 339.95 136.49 345.37 139.08 349.92 C 143.06 356.84 151.13 360.06 158.56 361.78 C 168.28 363.59 179.50 363.05 187.44 356.49 C 189.79 354.86 190.35 351.15 193.20 350.41 C 200.41 357.48 209.50 363.79 220.05 363.51 C 234.41 363.10 246.47 353.89 256.64 344.61 C 258.42 342.44 262.85 342.70 263.36 345.86 C 264.69 350.55 268.23 354.36 272.60 356.43 C 280.44 360.22 289.45 360.17 297.91 359.23 C 305.60 357.79 314.11 354.67 317.98 347.33 C 320.38 346.91 322.01 348.96 323.82 350.15 C 332.49 356.37 342.70 360.20 353.13 362.24 C 369.90 365.40 388.02 364.24 403.38 356.36 C 414.64 350.78 423.65 340.45 426.61 328.11 C 428.81 318.26 429.01 307.73 425.59 298.13 C 422.35 289.02 415.25 281.78 407.15 276.76 C 394.78 269.15 380.65 265.32 366.96 260.87 C 361.51 259.28 357.65 253.64 358.13 247.98 C 358.07 240.52 365.72 234.62 372.91 235.52 C 380.65 236.28 386.57 242.08 391.65 247.45 C 394.57 250.69 397.59 254.47 402.15 255.26 C 411.27 256.03 420.59 249.68 422.84 240.73 C 424.76 233.78 421.64 226.30 416.42 221.63 C 406.36 212.57 393.23 207.44 379.94 205.57 C 363.69 203.14 346.24 205.42 332.11 214.16 Z" />
<path fill="#820410" opacity="1.00" d=" M 27.66 44.09 C 29.44 39.36 33.46 34.23 39.05 34.72 C 46.09 35.76 50.05 43.48 49.59 50.07 C 49.85 54.13 47.54 57.69 47.08 61.64 C 48.16 61.59 49.24 61.55 50.32 61.51 C 51.39 59.15 52.42 56.67 52.31 54.02 C 52.44 50.40 51.45 46.42 53.75 43.26 C 58.50 42.45 61.45 47.37 61.73 51.50 C 62.22 57.55 61.50 64.44 57.11 69.03 C 54.24 72.38 49.34 73.22 45.28 71.80 C 33.97 68.32 25.06 56.09 27.66 44.09 M 38.40 44.69 C 38.03 47.88 39.25 50.95 41.45 53.23 C 41.85 50.33 42.17 47.17 40.33 44.66 C 39.85 44.67 38.88 44.68 38.40 44.69 Z" />
<path fill="#820410" opacity="1.00" d=" M 0.00 45.31 C 0.76 43.55 1.78 41.22 4.05 41.22 C 5.90 40.89 7.42 42.10 8.65 43.31 C 18.89 53.42 28.56 64.52 41.06 71.95 C 44.44 74.34 48.64 73.38 52.47 73.31 C 52.99 75.25 53.82 77.49 52.34 79.25 C 49.74 83.24 44.43 82.52 40.36 82.32 C 40.64 86.98 40.25 93.17 35.10 95.09 C 27.60 97.30 19.80 93.70 14.03 89.01 C 8.94 84.83 4.51 78.43 5.86 71.53 C 6.25 68.30 9.15 66.10 9.89 63.09 C 6.53 58.05 1.09 54.08 0.00 47.74 L 0.00 45.31 M 14.71 81.19 C 17.54 84.49 21.16 88.19 25.91 87.73 C 25.56 81.71 19.95 77.44 14.77 75.31 C 12.68 76.77 13.17 79.53 14.71 81.19 Z" />
<path fill="#820410" opacity="1.00" d=" M 107.48 128.68 C 110.58 126.71 114.49 126.90 117.97 127.48 C 129.53 130.58 136.13 145.02 131.03 155.83 C 128.94 160.98 123.68 165.06 117.93 164.31 C 106.62 162.90 98.02 151.04 99.86 139.85 C 100.90 135.37 103.59 131.19 107.48 128.68 Z" />
<path fill="#820410" opacity="1.00" d=" M 312.51 265.47 C 313.39 265.46 314.26 265.48 315.14 265.55 C 318.05 268.42 319.79 272.31 323.02 274.90 C 332.38 282.98 344.71 285.87 356.13 289.77 C 359.67 291.08 363.73 291.67 366.46 294.52 C 369.81 297.69 371.81 302.65 370.23 307.18 C 368.62 310.64 364.60 311.92 361.04 311.86 C 352.11 312.31 344.08 307.04 338.05 300.93 C 334.69 296.42 327.81 297.91 323.95 300.97 C 320.85 302.86 319.66 307.10 315.86 307.88 C 311.06 304.32 312.87 298.05 312.38 292.96 C 311.58 283.82 311.44 274.60 312.51 265.47 Z" />
<path fill="#820410" opacity="1.00" d=" M 249.55 286.77 C 255.12 286.08 260.74 285.37 266.37 285.73 C 266.62 285.95 267.12 286.40 267.37 286.62 C 266.95 293.58 265.96 300.91 261.77 306.72 C 256.56 314.25 246.77 317.41 237.93 316.54 C 233.78 316.12 229.71 313.22 228.78 309.01 C 227.62 303.77 229.86 298.32 233.33 294.43 C 237.42 289.76 243.67 287.93 249.55 286.77 Z" />
<path fill="#820410" opacity="1.00" d=" M 254.84 377.58 C 255.38 377.48 256.46 377.28 256.99 377.18 C 259.50 380.33 263.79 377.78 267.06 379.22 C 271.23 379.91 271.69 385.01 270.58 388.29 C 268.39 394.29 264.24 399.39 259.51 403.60 C 255.75 407.02 250.80 409.78 245.56 408.38 C 245.39 407.05 245.23 405.72 245.08 404.41 C 246.85 403.92 248.63 403.46 250.43 403.07 C 251.56 399.21 251.02 395.16 251.20 391.20 C 249.32 391.61 247.42 391.84 245.54 391.41 C 244.71 384.61 253.71 383.73 254.84 377.58 M 257.00 387.00 C 255.75 390.95 255.60 395.17 255.45 399.29 C 258.53 396.17 261.55 392.86 263.56 388.93 C 264.18 387.68 265.40 384.95 263.27 384.51 C 261.01 384.44 258.42 385.13 257.00 387.00 Z" />
<path fill="#820410" opacity="1.00" d=" M 289.10 379.16 C 289.52 377.13 291.73 377.45 293.30 377.27 C 293.53 377.91 293.99 379.19 294.23 379.83 C 293.36 384.50 293.05 389.26 292.71 394.00 C 292.42 397.61 293.76 401.28 292.61 404.83 C 291.38 404.62 290.07 404.69 288.92 404.21 C 287.16 402.23 287.21 399.44 287.11 396.97 C 287.06 391.00 287.20 384.88 289.10 379.16 Z" />
<path fill="#820410" opacity="1.00" d=" M 119.59 380.52 C 120.98 378.64 123.59 379.50 125.57 379.31 C 126.11 381.30 126.52 383.39 125.90 385.42 C 124.59 390.85 122.66 396.27 123.26 401.96 C 125.27 401.71 127.64 401.82 129.04 400.06 C 133.89 394.81 135.97 387.74 140.00 381.95 C 141.47 379.96 143.84 381.28 145.73 381.70 C 145.28 389.02 141.28 395.65 141.34 403.07 C 140.89 405.18 142.65 406.66 143.67 408.25 C 142.80 409.18 141.94 410.11 141.02 411.00 L 138.74 411.00 C 135.93 406.43 136.52 400.93 136.46 395.81 C 133.90 399.97 131.03 404.19 126.76 406.76 C 124.94 407.87 122.60 408.04 120.60 407.38 C 117.10 404.76 116.37 400.01 116.17 395.93 C 116.04 390.67 116.23 384.85 119.59 380.52 Z" />
<path fill="#820410" opacity="1.00" d=" M 296.62 384.29 C 296.60 382.39 295.76 379.77 297.94 378.70 C 298.76 378.63 300.41 378.50 301.23 378.43 C 302.11 379.98 303.32 382.10 301.69 383.65 C 300.59 385.36 298.25 384.30 296.62 384.29 Z" />
<path fill="#820410" opacity="1.00" d=" M 308.75 380.68 C 309.51 379.20 311.27 379.41 312.65 379.08 C 313.81 382.45 312.30 385.87 311.30 389.08 C 310.00 392.40 309.01 395.83 308.01 399.25 C 306.30 400.14 304.35 399.04 304.55 397.04 C 304.63 391.42 305.66 385.47 308.75 380.68 Z" />
<path fill="#820410" opacity="1.00" d=" M 324.33 380.29 C 325.23 378.82 327.16 379.60 328.55 379.48 C 328.50 386.57 324.67 392.79 323.22 399.59 C 320.39 400.28 319.31 397.34 319.80 395.06 C 320.53 389.99 321.11 384.48 324.33 380.29 Z" />
<path fill="#820410" opacity="1.00" d=" M 315.95 381.20 C 316.79 379.31 318.88 379.19 320.67 379.30 C 321.15 385.26 318.04 390.57 316.57 396.17 C 316.20 398.36 315.12 400.29 312.56 399.45 C 311.81 393.23 312.96 386.71 315.95 381.20 Z" />
<path fill="#820410" opacity="1.00" d=" M 146.66 383.91 C 146.43 382.02 148.61 381.37 149.80 380.47 C 150.47 380.79 151.79 381.43 152.46 381.75 C 152.63 383.48 152.76 385.21 152.82 386.95 C 154.29 385.41 156.24 384.77 158.28 385.63 C 158.45 387.04 158.63 388.45 158.81 389.87 C 161.21 386.50 163.72 381.74 168.56 382.14 C 170.15 385.58 169.25 389.37 169.16 393.00 C 168.90 396.81 169.65 400.60 169.51 404.41 C 167.10 404.89 163.97 405.05 162.85 402.32 C 161.43 397.89 163.38 393.35 163.68 388.90 C 162.13 391.55 160.47 394.14 158.57 396.56 C 158.07 396.59 157.07 396.64 156.57 396.67 C 155.56 394.47 156.26 391.22 153.99 389.82 C 151.86 393.76 152.38 398.49 150.47 402.49 C 149.41 404.95 144.94 403.99 145.73 401.06 C 146.49 395.37 146.80 389.64 146.66 383.91 Z" />
<path fill="#820410" opacity="1.00" d=" M 172.49 381.63 C 173.11 381.38 174.35 380.90 174.97 380.66 C 175.63 380.93 176.95 381.48 177.61 381.76 C 177.73 383.41 177.85 385.07 177.92 386.73 C 179.44 385.56 181.26 384.89 183.18 385.44 C 183.45 386.69 183.73 387.94 184.02 389.20 C 186.77 386.79 188.61 381.95 192.83 382.24 C 195.75 383.51 194.32 387.51 194.44 390.00 C 193.65 394.82 194.81 399.62 194.57 404.44 C 192.37 404.70 189.37 405.25 188.27 402.69 C 186.22 398.29 188.65 393.42 188.72 388.84 C 187.24 391.56 185.58 394.18 183.64 396.60 C 183.15 396.61 182.16 396.65 181.66 396.66 C 181.05 394.55 180.58 392.40 180.31 390.22 C 179.92 390.28 179.13 390.40 178.74 390.46 C 177.25 394.11 177.31 398.17 175.92 401.84 C 175.30 403.82 173.18 403.85 171.47 403.91 C 170.16 400.67 171.56 397.26 171.56 393.94 C 172.04 389.84 171.24 385.61 172.49 381.63 Z" />
<path fill="#820410" opacity="1.00" d=" M 197.50 381.74 C 198.12 381.46 199.38 380.90 200.01 380.63 C 200.64 380.87 201.90 381.37 202.53 381.61 C 202.99 383.48 203.37 385.38 203.53 387.31 C 204.31 385.22 206.25 384.94 208.16 385.43 C 208.66 386.93 209.19 388.42 209.70 389.92 C 210.78 386.95 212.84 384.39 215.46 382.63 C 216.83 381.83 219.30 381.94 219.50 383.95 C 219.99 387.29 219.34 390.66 219.31 394.02 C 219.16 397.52 220.00 401.00 219.62 404.51 C 217.41 404.77 214.53 405.08 213.37 402.66 C 211.24 398.25 213.91 393.45 213.75 388.83 C 211.82 391.64 210.76 396.53 206.71 396.72 C 206.17 394.44 205.70 392.15 205.27 389.86 C 200.72 392.96 203.70 400.19 199.64 403.58 C 197.64 404.70 196.17 403.03 195.67 401.23 C 197.21 394.85 196.71 388.21 197.50 381.74 Z" />
<path fill="#820410" opacity="1.00" d=" M 274.66 384.70 C 276.71 384.05 279.11 383.78 281.11 384.76 C 283.34 386.36 282.95 389.68 281.95 391.88 C 280.63 394.86 277.46 396.05 274.89 397.68 C 278.52 398.66 280.35 395.00 283.02 393.39 C 285.71 394.24 285.11 397.83 283.37 399.33 C 280.83 402.14 276.29 404.90 272.69 402.32 C 267.77 397.67 268.73 388.11 274.66 384.70 Z" />
<path fill="#820410" opacity="1.00" d=" M 296.73 386.59 C 298.36 386.51 300.00 386.42 301.64 386.36 C 301.78 391.70 301.98 397.06 301.37 402.38 C 300.45 402.47 298.62 402.65 297.70 402.74 C 295.02 397.93 294.38 391.63 296.73 386.59 Z" />
<path fill="#820410" opacity="1.00" d=" M 222.18 399.26 C 223.65 399.32 225.12 399.39 226.59 399.49 C 226.54 400.80 226.47 402.11 226.40 403.43 C 225.12 403.41 223.85 403.39 222.59 403.38 C 222.44 402.00 222.31 400.63 222.18 399.26 Z" />
<path fill="#820410" opacity="1.00" d=" M 230.18 399.26 C 231.61 399.32 233.04 399.40 234.47 399.49 C 234.43 400.77 234.39 402.05 234.33 403.33 C 233.06 403.36 231.80 403.39 230.54 403.42 C 230.40 402.03 230.28 400.64 230.18 399.26 Z" />
<path fill="#820410" opacity="1.00" d=" M 237.73 399.53 C 239.29 399.31 240.87 399.34 242.44 399.55 C 242.38 400.78 242.32 402.02 242.26 403.26 C 241.12 403.33 239.98 403.40 238.85 403.48 C 238.54 402.97 237.94 401.95 237.64 401.44 C 237.66 400.96 237.71 400.00 237.73 399.53 Z" />
<path fill="#820410" opacity="1.00" d=" M 303.54 401.57 C 305.15 401.25 306.77 401.28 308.38 401.63 C 308.33 403.18 308.28 404.74 308.22 406.29 C 306.72 406.32 305.23 406.31 303.75 406.27 C 303.67 404.70 303.60 403.14 303.54 401.57 Z" />
<path fill="#820410" opacity="1.00" d=" M 311.40 401.34 C 312.81 401.32 314.23 401.31 315.65 401.31 C 315.78 403.01 315.72 404.73 315.43 406.42 C 314.15 406.38 312.88 406.34 311.61 406.31 C 311.34 404.66 311.28 403.00 311.40 401.34 Z" />
<path fill="#820410" opacity="1.00" d=" M 319.59 401.39 C 320.86 401.08 322.17 401.34 323.47 401.39 C 323.41 403.14 324.28 405.56 322.22 406.51 C 319.19 407.52 317.38 403.28 319.59 401.39 Z" />
</g>
</svg>
