<?xml version="1.0" encoding="UTF-8" ?>
<!DOCTYPE svg PUBLIC "-//W3C//DTD SVG 1.1//EN" "http://www.w3.org/Graphics/SVG/1.1/DTD/svg11.dtd">
<svg width="386pt" height="319pt" viewBox="0 0 386 319" version="1.1" xmlns="http://www.w3.org/2000/svg">
<g id="#f7f7f7ff">
</g>
<g id="#000000ff">
<path fill="#000000" opacity="1.00" d=" M 157.17 53.60 C 163.23 51.24 169.41 48.95 175.95 48.38 C 190.30 46.54 205.41 51.09 216.07 60.93 C 217.98 62.41 217.85 65.45 216.05 66.97 C 209.65 73.32 207.26 83.34 210.34 91.85 C 213.16 100.34 221.10 106.67 229.94 107.82 C 232.16 107.88 233.62 109.83 233.84 111.90 C 236.12 123.60 243.97 134.02 254.57 139.46 C 264.97 144.95 277.83 145.45 288.64 140.80 C 291.18 139.81 293.41 138.19 295.90 137.10 C 298.29 136.39 300.88 138.42 300.85 140.88 C 301.42 147.91 300.17 155.06 297.31 161.49 C 296.39 163.17 296.77 165.11 296.82 166.93 C 298.40 196.76 288.04 226.97 268.65 249.68 C 252.41 269.00 229.83 282.70 205.34 288.66 C 193.92 295.97 179.22 298.26 166.40 293.40 C 163.63 292.41 161.10 290.68 158.11 290.43 C 134.85 286.95 112.94 276.06 95.64 260.21 C 89.78 259.59 83.71 260.62 77.96 258.90 C 65.92 255.89 56.15 245.62 53.72 233.46 C 51.46 223.21 54.56 212.16 61.45 204.30 C 55.26 182.38 55.61 158.74 62.20 136.94 C 61.69 128.76 59.71 120.22 62.31 112.15 C 65.45 101.64 75.13 93.54 86.02 92.28 C 87.72 92.34 88.64 90.80 89.71 89.77 C 107.41 70.72 131.58 57.99 157.17 53.60 M 152.82 65.80 C 146.35 70.29 142.22 77.20 136.27 82.25 C 123.44 93.82 106.22 100.14 88.98 100.04 C 78.83 100.11 69.71 108.77 69.10 118.89 C 68.69 129.28 70.66 139.70 74.30 149.42 C 76.76 156.11 79.70 162.73 80.52 169.89 C 82.15 181.10 79.66 192.92 73.26 202.32 C 70.13 207.15 65.47 210.93 63.19 216.31 C 59.97 223.42 60.34 232.02 64.15 238.83 C 68.07 246.07 75.71 251.15 83.93 251.86 C 88.29 252.18 92.66 251.88 97.03 252.06 C 115.80 252.57 134.31 259.38 148.97 271.11 C 154.80 275.59 159.37 281.79 166.30 284.73 C 180.52 291.68 199.10 287.18 208.56 274.49 C 213.32 268.88 214.34 261.32 218.18 255.19 C 224.23 244.89 234.46 237.21 245.99 234.12 C 257.17 231.08 265.92 220.90 267.22 209.38 C 268.09 201.17 270.14 193.07 273.62 185.57 C 277.40 177.10 283.29 169.86 288.12 162.00 C 290.73 157.68 292.21 152.76 292.86 147.77 C 280.18 153.44 265.08 153.45 252.53 147.40 C 239.55 141.39 229.75 129.24 226.36 115.37 C 214.99 112.92 205.28 104.01 202.23 92.74 C 199.39 83.10 201.60 72.31 207.69 64.36 C 191.79 52.23 168.37 53.96 152.82 65.80 M 99.57 91.12 C 116.00 88.72 130.53 78.98 140.61 66.02 C 125.36 71.36 111.21 79.90 99.57 91.12 M 67.67 196.26 C 71.95 188.97 73.78 180.30 72.71 171.91 C 72.07 165.02 69.17 158.67 66.81 152.26 C 64.19 166.79 64.43 181.84 67.67 196.26 M 275.22 209.85 C 273.74 224.76 262.45 238.01 247.97 241.87 C 236.34 244.98 226.41 253.85 222.23 265.16 C 220.85 269.16 219.14 273.05 216.90 276.65 C 233.57 270.28 248.74 259.98 260.60 246.63 C 278.04 227.23 288.23 201.53 288.86 175.45 C 281.47 185.51 276.38 197.35 275.22 209.85 M 109.86 261.54 C 120.89 269.88 133.49 276.13 146.82 279.82 C 136.35 270.67 123.51 264.23 109.86 261.54 Z" />
<path fill="#000000" opacity="1.00" d=" M 247.33 60.37 C 249.52 59.27 252.32 60.71 252.87 63.05 C 254.21 67.00 255.61 70.94 256.79 74.94 C 257.58 77.10 255.76 78.92 254.74 80.64 C 252.51 83.81 250.50 87.15 248.22 90.29 C 247.07 92.10 244.40 92.54 242.71 91.24 C 238.68 88.60 234.65 85.96 230.70 83.21 C 228.38 81.76 228.59 78.25 230.67 76.68 C 236.28 71.30 241.45 65.43 247.33 60.37 M 239.29 79.37 C 240.82 80.40 242.36 81.42 243.89 82.45 C 245.48 80.09 247.05 77.72 248.60 75.33 C 248.14 74.03 247.69 72.72 247.24 71.42 C 244.59 74.07 241.93 76.71 239.29 79.37 Z" />
<path fill="#000000" opacity="1.00" d=" M 275.29 80.39 C 280.78 79.50 286.48 80.22 292.05 80.00 C 294.12 79.73 296.45 80.88 296.85 83.07 C 298.25 88.41 299.60 93.76 300.86 99.13 C 301.40 100.97 300.26 102.79 298.69 103.68 C 294.67 106.32 290.77 109.15 286.64 111.60 C 284.33 112.90 282.17 110.87 280.43 109.58 C 275.59 105.72 270.34 102.37 265.71 98.28 C 263.65 95.35 266.66 92.50 268.12 90.10 C 270.59 86.95 272.13 82.91 275.29 80.39 M 279.15 88.00 C 277.57 90.35 275.99 92.71 274.43 95.07 C 278.00 97.75 281.56 100.43 285.14 103.10 C 287.57 101.48 290.01 99.86 292.43 98.23 C 291.58 94.82 290.73 91.41 289.88 88.00 C 286.30 88.00 282.72 88.00 279.15 88.00 Z" />
<path fill="#000000" opacity="1.00" d=" M 173.82 86.40 C 175.94 84.80 178.07 83.20 180.20 81.61 C 184.20 86.94 188.21 92.26 192.19 97.61 C 190.06 99.21 187.94 100.80 185.82 102.40 C 181.81 97.07 177.81 91.74 173.82 86.40 Z" />
<path fill="#000000" opacity="1.00" d=" M 153.44 92.56 C 160.41 90.10 168.55 95.61 168.93 102.96 C 169.79 110.12 163.05 116.82 155.89 115.94 C 148.82 115.50 143.37 107.90 145.38 101.05 C 146.36 97.08 149.52 93.75 153.44 92.56 M 155.28 100.38 C 152.84 101.43 152.20 105.02 154.16 106.82 C 156.17 109.05 160.28 107.91 160.88 104.98 C 161.85 101.86 158.15 98.82 155.28 100.38 Z" />
<path fill="#000000" opacity="1.00" d=" M 125.21 110.52 C 127.69 111.51 130.16 112.50 132.64 113.49 C 129.98 120.15 127.31 126.81 124.66 133.47 C 122.18 132.48 119.70 131.48 117.23 130.49 C 119.89 123.84 122.55 117.18 125.21 110.52 Z" />
<path fill="#000000" opacity="1.00" d=" M 169.47 128.66 C 181.93 126.44 195.26 129.96 204.99 138.07 C 214.48 145.82 220.42 157.71 220.93 169.96 C 221.61 182.65 216.36 195.46 207.05 204.09 C 198.04 212.62 185.30 217.02 172.95 215.79 C 159.74 214.65 147.28 207.12 140.12 195.96 C 132.43 184.30 130.86 168.91 136.05 155.94 C 141.45 141.85 154.58 131.12 169.47 128.66 M 169.57 136.78 C 163.23 138.13 157.27 141.20 152.53 145.61 C 142.51 154.70 138.48 169.67 142.58 182.56 C 145.82 193.28 154.36 202.20 164.93 205.91 C 174.96 209.55 186.59 208.35 195.68 202.75 C 210.28 194.26 216.96 174.79 210.60 159.12 C 204.77 142.96 186.32 132.88 169.57 136.78 Z" />
<path fill="#000000" opacity="1.00" d=" M 97.35 132.59 C 104.31 130.07 112.49 135.53 112.93 142.89 C 113.84 150.07 107.08 156.82 99.90 155.94 C 92.82 155.51 87.37 147.90 89.38 141.05 C 90.35 137.11 93.47 133.79 97.35 132.59 M 99.27 140.39 C 96.58 141.53 96.21 145.66 98.67 147.26 C 101.14 149.21 105.15 147.12 105.01 144.00 C 105.12 141.17 101.78 139.04 99.27 140.39 Z" />
<path fill="#000000" opacity="1.00" d=" M 237.34 156.59 C 244.30 154.07 252.48 159.52 252.93 166.87 C 253.77 173.66 247.81 180.18 240.99 179.99 C 234.16 180.19 228.16 173.62 229.07 166.83 C 229.47 162.17 232.87 157.97 237.34 156.59 M 239.30 164.37 C 236.58 165.50 236.20 169.67 238.68 171.26 C 241.14 173.20 245.14 171.13 245.01 168.01 C 245.13 165.19 241.81 163.05 239.30 164.37 Z" />
<path fill="#000000" opacity="1.00" d=" M 101.82 170.40 C 103.94 168.80 106.07 167.20 108.20 165.61 C 112.20 170.94 116.21 176.26 120.19 181.61 C 118.06 183.21 115.94 184.80 113.82 186.40 C 109.81 181.07 105.81 175.74 101.82 170.40 Z" />
<path fill="#000000" opacity="1.00" d=" M 238.79 192.73 C 245.32 188.48 252.15 184.71 258.78 180.62 C 260.14 182.90 261.51 185.18 262.89 187.46 C 256.22 191.46 249.56 195.47 242.89 199.45 C 241.55 197.19 240.21 194.93 238.79 192.73 Z" />
<path fill="#000000" opacity="1.00" d=" M 222.15 206.82 C 224.04 204.94 225.92 203.06 227.80 201.18 C 233.14 206.51 238.46 211.84 243.79 217.17 C 241.91 219.05 240.03 220.93 238.14 222.82 C 232.81 217.49 227.48 212.16 222.15 206.82 Z" />
<path fill="#000000" opacity="1.00" d=" M 85.00 208.00 C 91.67 208.00 98.33 208.00 105.00 208.00 C 105.00 210.67 105.00 213.33 105.00 216.00 C 98.33 216.00 91.67 216.00 85.00 216.00 C 85.00 213.33 85.00 210.66 85.00 208.00 Z" />
<path fill="#000000" opacity="1.00" d=" M 121.40 220.57 C 128.37 218.07 136.51 223.55 136.94 230.90 C 137.82 238.07 131.08 244.83 123.90 243.93 C 116.82 243.50 111.40 235.89 113.38 229.05 C 114.36 225.09 117.50 221.77 121.40 220.57 M 123.37 228.34 C 120.87 229.34 120.18 232.96 122.15 234.81 C 124.15 237.05 128.29 235.90 128.88 232.96 C 129.83 229.89 126.22 226.87 123.37 228.34 Z" />
<path fill="#000000" opacity="1.00" d=" M 206.62 236.76 C 211.95 232.76 217.28 228.76 222.62 224.76 C 224.22 226.89 225.81 229.01 227.40 231.14 C 222.08 235.16 216.75 239.16 211.41 243.14 C 209.81 241.01 208.21 238.89 206.62 236.76 Z" />
<path fill="#000000" opacity="1.00" d=" M 159.40 228.81 C 164.75 232.79 170.07 236.79 175.40 240.81 C 173.80 242.93 172.20 245.06 170.60 247.19 C 165.27 243.19 159.94 239.19 154.61 235.20 C 156.20 233.06 157.80 230.94 159.40 228.81 Z" />
<path fill="#000000" opacity="1.00" d=" M 185.42 252.56 C 192.37 250.09 200.47 255.53 200.94 262.84 C 201.77 269.61 195.86 276.15 189.04 275.98 C 182.21 276.21 176.22 269.66 177.07 262.88 C 177.46 258.17 180.90 253.92 185.42 252.56 M 187.32 260.36 C 184.57 261.49 184.19 265.67 186.70 267.28 C 188.88 268.94 192.40 267.57 192.90 264.88 C 193.78 261.81 190.14 258.86 187.32 260.36 Z" />
</g>
</svg>
