<?xml version="1.0" encoding="UTF-8" ?>
<!DOCTYPE svg PUBLIC "-//W3C//DTD SVG 1.1//EN" "http://www.w3.org/Graphics/SVG/1.1/DTD/svg11.dtd">
<svg width="303pt" height="384pt" viewBox="0 0 303 384" version="1.1" xmlns="http://www.w3.org/2000/svg">
<g id="#f7f7f7ff">
</g>
<g id="#052a75ff">
<path fill="#052a75" opacity="1.00" d=" M 75.06 69.00 C 73.96 65.03 79.05 61.36 82.49 63.70 C 124.90 84.66 153.50 130.87 153.17 178.21 C 159.66 173.67 164.58 167.25 168.52 160.45 C 174.98 149.15 179.27 136.73 182.23 124.08 C 182.81 120.67 187.31 118.98 190.04 121.10 C 192.25 123.24 193.87 125.91 195.67 128.39 C 206.52 144.59 214.88 162.42 220.97 180.92 C 227.55 200.77 230.16 222.33 225.58 242.91 C 220.11 268.32 203.81 291.10 181.65 304.64 C 163.18 316.12 140.74 320.98 119.17 318.25 C 94.78 315.38 71.80 302.65 56.25 283.66 C 40.54 264.74 32.36 239.61 34.49 215.07 C 36.72 193.94 47.88 175.08 60.31 158.35 C 71.36 144.70 76.37 127.18 78.12 109.96 C 79.38 96.28 78.72 82.30 75.06 69.00 M 87.13 77.79 C 91.07 101.46 88.16 126.43 78.21 148.32 C 73.58 159.00 65.31 167.42 59.43 177.36 C 51.08 190.80 44.21 205.97 44.19 222.07 C 45.59 240.56 50.89 259.13 61.61 274.44 C 71.43 288.58 86.01 299.41 102.49 304.47 C 121.55 310.74 142.76 309.83 161.49 302.80 C 181.37 295.62 198.71 281.04 208.32 262.12 C 215.89 247.60 218.66 230.90 217.60 214.65 C 215.74 186.72 203.97 160.49 189.22 137.08 C 184.93 150.94 179.11 164.59 169.96 175.98 C 164.44 182.75 157.42 188.65 149.00 191.34 C 145.90 192.06 142.71 189.25 143.04 186.10 C 145.92 143.45 123.60 100.10 87.13 77.79 Z" />
</g>
<g id="#fd8f01ff">
<path fill="#fd8f01" opacity="1.00" d=" M 87.13 77.79 C 123.60 100.10 145.92 143.45 143.04 186.10 C 142.71 189.25 145.90 192.06 149.00 191.34 C 157.42 188.65 164.44 182.75 169.96 175.98 C 179.11 164.59 184.93 150.94 189.22 137.08 C 203.97 160.49 215.74 186.72 217.60 214.65 C 218.66 230.90 215.89 247.60 208.32 262.12 C 198.34 266.80 187.85 270.60 176.86 272.00 C 177.74 253.11 169.94 234.89 159.18 219.75 C 155.80 231.30 151.51 244.94 139.58 250.24 C 140.07 235.62 136.12 220.62 126.93 209.06 C 121.23 201.77 113.93 195.68 105.62 191.58 C 108.36 203.89 108.15 217.22 102.88 228.85 C 100.74 233.83 97.31 238.07 94.22 242.47 C 76.29 225.01 64.41 201.81 59.43 177.36 C 65.31 167.42 73.58 159.00 78.21 148.32 C 88.16 126.43 91.07 101.46 87.13 77.79 Z" />
<path fill="#fd8f01" opacity="1.00" d=" M 94.06 242.71 C 101.32 249.71 109.34 255.96 118.25 260.73 C 135.94 270.48 156.67 274.52 176.73 272.01 C 175.72 283.71 170.22 294.92 161.49 302.80 C 142.76 309.83 121.55 310.74 102.49 304.47 C 92.60 296.60 86.24 284.67 85.24 272.08 C 83.91 261.53 88.34 251.31 94.06 242.71 Z" />
</g>
<g id="#fd6050ff">
<path fill="#fd6050" opacity="1.00" d=" M 59.43 177.36 C 64.41 201.81 76.29 225.01 94.22 242.47 L 94.06 242.71 C 88.34 251.31 83.91 261.53 85.24 272.08 C 86.24 284.67 92.60 296.60 102.49 304.47 C 86.01 299.41 71.43 288.58 61.61 274.44 C 50.89 259.13 45.59 240.56 44.19 222.07 C 44.21 205.97 51.08 190.80 59.43 177.36 Z" />
<path fill="#fd6050" opacity="1.00" d=" M 176.86 272.00 C 187.85 270.60 198.34 266.80 208.32 262.12 C 198.71 281.04 181.37 295.62 161.49 302.80 C 170.22 294.92 175.72 283.71 176.73 272.01 L 176.86 272.00 Z" />
</g>
<g id="#fdcb50ff">
<path fill="#fdcb50" opacity="1.00" d=" M 105.62 191.58 C 113.93 195.68 121.23 201.77 126.93 209.06 C 136.12 220.62 140.07 235.62 139.58 250.24 C 151.51 244.94 155.80 231.30 159.18 219.75 C 169.94 234.89 177.74 253.11 176.86 272.00 L 176.73 272.01 C 156.67 274.52 135.94 270.48 118.25 260.73 C 109.34 255.96 101.32 249.71 94.06 242.71 L 94.22 242.47 C 97.31 238.07 100.74 233.83 102.88 228.85 C 108.15 217.22 108.36 203.89 105.62 191.58 Z" />
</g>
</svg>
