<?xml version="1.0" encoding="UTF-8" ?>
<!DOCTYPE svg PUBLIC "-//W3C//DTD SVG 1.1//EN" "http://www.w3.org/Graphics/SVG/1.1/DTD/svg11.dtd">
<svg width="384pt" height="291pt" viewBox="0 0 384 291" version="1.1" xmlns="http://www.w3.org/2000/svg">
<g id="#ffffffff">
</g>
<g id="#f7eadaff">
<path fill="#f7eada" opacity="1.00" d=" M 182.21 51.06 C 183.58 50.26 185.21 51.52 185.24 52.97 C 183.49 56.43 179.46 58.76 179.32 62.95 C 179.15 66.21 178.72 69.80 180.31 72.80 C 183.36 77.65 188.34 81.16 190.63 86.51 C 193.08 94.01 190.63 102.70 184.74 107.92 C 183.39 108.29 182.01 108.43 180.59 108.33 C 180.57 103.59 185.88 101.33 186.48 96.79 C 187.01 92.93 187.40 88.39 184.77 85.17 C 181.73 81.22 177.44 78.16 175.41 73.48 C 172.75 65.57 174.81 55.67 182.21 51.06 Z" />
<path fill="#f7eada" opacity="1.00" d=" M 134.21 70.02 C 135.57 69.25 137.29 70.38 137.18 71.95 C 135.74 74.77 133.22 77.04 132.51 80.21 C 131.90 83.50 131.96 87.23 134.00 90.05 C 136.79 93.99 140.47 97.49 141.86 102.26 C 143.54 108.39 141.52 115.61 136.47 119.59 C 135.13 120.89 132.59 120.10 132.82 118.06 C 134.25 115.23 136.78 112.95 137.48 109.77 C 138.19 106.25 137.90 102.28 135.59 99.37 C 132.84 95.35 128.56 92.02 127.69 87.00 C 127.16 80.87 128.61 73.50 134.21 70.02 Z" />
<path fill="#f7eada" opacity="1.00" d=" M 226.52 73.59 C 227.96 71.63 229.90 68.37 232.68 70.32 C 234.05 72.14 231.97 73.64 231.10 75.11 C 226.29 80.21 227.79 88.78 232.47 93.46 C 237.20 98.27 240.28 105.65 237.32 112.21 C 235.62 115.82 233.52 120.88 228.67 120.35 C 228.62 115.28 234.32 112.26 233.78 107.04 C 234.31 99.31 226.29 95.41 224.11 88.73 C 222.91 83.65 223.26 77.87 226.52 73.59 Z" />
<path fill="#f7eada" opacity="1.00" d=" M 173.26 120.04 C 183.39 119.14 193.63 119.44 203.68 121.05 C 212.28 121.56 220.36 124.67 228.47 127.30 C 249.01 134.61 267.72 147.82 280.24 165.80 C 289.12 178.79 294.58 194.24 295.41 209.98 C 295.88 216.78 293.07 223.57 288.54 228.57 C 283.45 233.56 277.14 237.27 270.39 239.54 C 253.89 245.33 236.30 247.02 218.96 248.29 C 210.95 248.28 203.01 249.63 195.00 249.36 C 181.32 249.22 167.64 249.45 153.97 249.28 C 133.39 247.30 112.00 247.70 92.62 239.53 C 84.98 235.95 77.19 230.56 74.60 222.10 C 71.12 213.07 72.92 203.25 74.86 194.10 C 79.60 175.23 90.86 158.14 106.11 146.12 C 120.95 133.59 139.37 126.24 158.08 121.78 C 163.09 120.80 168.20 120.58 173.26 120.04 M 153.88 127.79 C 159.98 127.66 166.15 127.28 172.17 128.49 C 178.48 129.69 184.98 130.24 191.34 129.07 C 197.86 127.83 204.54 127.69 211.04 126.44 C 205.40 125.77 199.81 124.60 194.12 124.33 C 180.66 124.31 166.86 123.50 153.88 127.79 M 196.96 132.40 C 206.22 133.87 214.20 139.25 223.17 141.56 C 230.13 140.81 237.01 139.07 244.08 139.47 C 242.66 138.26 240.79 137.82 239.25 136.80 C 233.30 134.29 227.67 130.33 220.97 130.30 C 212.93 130.49 204.96 131.76 196.96 132.40 M 122.01 140.61 C 128.52 140.37 134.96 141.29 141.33 142.48 C 145.95 143.65 149.92 140.57 153.91 138.81 C 159.65 135.94 165.89 134.37 172.00 132.50 C 162.66 132.29 153.32 132.38 143.98 132.25 C 135.74 131.56 129.01 137.18 122.01 140.61 M 175.13 136.49 C 167.06 137.93 159.47 141.16 152.06 144.57 C 162.52 148.21 173.18 151.42 183.00 156.65 C 190.94 152.79 198.64 148.19 207.27 145.99 C 209.79 145.10 212.40 144.46 214.88 143.43 C 206.02 139.63 196.76 136.81 187.32 134.87 C 183.18 133.99 179.16 135.81 175.13 136.49 M 228.72 144.88 C 234.48 148.61 240.59 151.78 246.19 155.77 C 252.99 160.54 259.22 166.07 265.49 171.51 C 267.48 172.90 267.41 175.36 267.47 177.53 C 262.89 177.53 260.59 173.15 257.45 170.56 C 247.84 162.27 237.51 154.72 226.23 148.85 C 223.82 147.53 221.02 146.83 218.29 147.51 C 208.29 149.44 198.86 153.54 189.71 157.89 C 188.24 158.11 188.15 159.91 189.57 160.30 C 199.57 165.99 209.06 172.62 217.64 180.29 C 219.33 181.46 219.35 183.53 219.32 185.39 C 217.03 185.37 215.02 184.16 213.36 182.67 C 205.46 175.73 196.71 169.83 187.78 164.30 C 185.82 163.15 183.33 161.46 181.21 163.27 C 170.52 169.88 160.64 177.85 152.04 187.01 C 150.44 188.96 148.05 189.72 145.58 189.37 C 145.49 185.38 148.94 183.01 151.47 180.50 C 160.05 172.83 169.00 165.53 178.77 159.43 C 168.46 154.93 157.94 150.63 146.86 148.45 C 144.79 148.04 142.96 149.39 141.21 150.27 C 133.04 155.17 124.87 160.27 118.10 167.05 C 116.73 168.65 114.76 169.41 112.67 169.39 C 112.80 167.59 113.07 165.68 114.48 164.40 C 121.43 156.92 130.27 151.58 138.96 146.38 C 131.90 146.61 125.08 144.26 118.04 144.40 C 115.72 144.29 113.82 145.75 112.08 147.08 C 101.62 155.26 92.21 165.14 86.23 177.10 C 82.66 183.71 79.75 190.77 78.74 198.26 C 77.66 206.71 75.71 216.01 80.38 223.79 C 85.65 231.58 94.38 236.46 103.44 238.48 C 112.15 241.39 121.35 242.01 130.39 243.27 C 137.58 243.88 144.83 243.47 152.00 244.47 C 168.02 244.90 184.05 244.55 200.07 244.68 C 206.42 244.85 212.69 243.47 219.04 243.64 C 228.68 243.82 238.21 242.09 247.67 240.41 C 258.46 238.96 269.28 236.16 278.75 230.67 C 285.67 226.73 291.05 219.21 290.72 211.02 C 290.78 200.90 287.77 191.12 284.06 181.81 C 277.54 166.88 266.22 154.43 253.07 145.02 C 250.46 143.04 247.03 143.14 243.92 143.33 C 238.85 143.85 233.73 144.16 228.72 144.88 Z" />
</g>
</svg>
