<?xml version="1.0" encoding="UTF-8" ?>
<!DOCTYPE svg PUBLIC "-//W3C//DTD SVG 1.1//EN" "http://www.w3.org/Graphics/SVG/1.1/DTD/svg11.dtd">
<svg width="343pt" height="320pt" viewBox="0 0 343 320" version="1.1" xmlns="http://www.w3.org/2000/svg">
<g id="#f7f7f7ff">
</g>
<g id="#f5871eff">
<path fill="#f5871e" opacity="1.00" d=" M 130.10 52.05 C 132.72 46.75 141.26 46.73 143.89 52.03 C 153.49 71.10 162.78 90.33 172.31 109.43 C 193.39 112.49 214.48 115.47 235.53 118.66 C 241.49 119.47 244.16 127.70 239.86 131.86 C 224.69 146.80 209.43 161.64 194.14 176.44 C 197.56 197.34 201.32 218.19 204.79 239.09 C 205.62 243.06 202.92 247.30 198.98 248.24 C 195.51 249.30 192.33 247.10 189.40 245.59 C 171.94 236.38 154.48 227.19 137.00 218.03 C 118.23 227.89 99.49 237.82 80.68 247.60 C 75.23 250.81 67.82 245.37 69.19 239.21 C 72.66 218.29 76.41 197.40 79.88 176.47 C 64.60 161.62 49.31 146.79 34.13 131.84 C 29.84 127.70 32.51 119.50 38.42 118.68 C 59.48 115.54 80.57 112.51 101.65 109.47 C 111.22 90.38 120.49 71.12 130.10 52.05 M 131.39 76.37 C 123.99 91.01 117.03 105.88 109.46 120.43 C 93.39 122.70 77.32 125.08 61.25 127.40 C 57.93 127.59 55.04 130.60 55.50 134.00 C 55.51 136.36 57.47 137.89 58.99 139.39 C 70.16 150.44 81.62 161.20 92.72 172.32 C 90.17 188.71 87.04 205.01 84.46 221.40 C 83.43 226.12 89.33 230.01 93.34 227.36 C 107.98 219.91 122.38 211.96 137.05 204.56 C 151.22 211.79 165.23 219.34 179.31 226.73 C 181.06 227.54 182.97 228.60 184.97 228.06 C 187.92 227.44 190.16 224.39 189.53 221.37 C 186.98 205.00 183.83 188.71 181.27 172.34 C 192.82 160.84 204.67 149.64 216.26 138.17 C 218.47 136.26 219.22 132.88 217.62 130.34 C 216.51 128.27 214.10 127.61 211.94 127.28 C 196.65 125.12 181.38 122.83 166.09 120.66 C 164.19 120.72 163.55 118.73 162.77 117.38 C 156.34 104.23 149.88 91.10 143.41 77.98 C 142.40 75.94 141.33 73.53 138.92 72.87 C 135.94 71.76 132.57 73.51 131.39 76.37 Z" />
</g>
<g id="#fabe19ff">
<path fill="#fabe19" opacity="1.00" d=" M 75.44 69.58 C 78.68 68.34 82.64 69.52 84.65 72.37 C 88.51 77.55 92.25 82.81 96.06 88.02 C 98.04 90.49 98.62 94.08 97.09 96.92 C 95.36 100.46 90.83 102.23 87.17 100.76 C 84.61 99.89 83.15 97.46 81.62 95.41 C 78.32 90.69 74.76 86.14 71.52 81.38 C 68.66 77.37 70.80 71.14 75.44 69.58 Z" />
<path fill="#fabe19" opacity="1.00" d=" M 193.42 69.54 C 199.48 67.38 205.79 74.29 203.13 80.13 C 200.30 85.11 196.45 89.45 193.25 94.20 C 191.02 97.40 188.48 101.48 184.01 101.27 C 178.38 101.50 174.09 94.78 176.85 89.81 C 179.89 84.96 183.56 80.53 186.81 75.82 C 188.62 73.40 190.26 70.35 193.42 69.54 Z" />
<path fill="#fabe19" opacity="1.00" d=" M 143.41 77.98 C 149.88 91.10 156.34 104.23 162.77 117.38 C 163.55 118.73 164.19 120.72 166.09 120.66 C 181.38 122.83 196.65 125.12 211.94 127.28 C 214.10 127.61 216.51 128.27 217.62 130.34 C 219.22 132.88 218.47 136.26 216.26 138.17 C 204.67 149.64 192.82 160.84 181.27 172.34 C 183.83 188.71 186.98 205.00 189.53 221.37 C 190.16 224.39 187.92 227.44 184.97 228.06 C 182.97 228.60 181.06 227.54 179.31 226.73 C 165.23 219.34 151.22 211.79 137.05 204.56 C 122.38 211.96 107.98 219.91 93.34 227.36 C 89.33 230.01 83.43 226.12 84.46 221.40 C 87.04 205.01 90.17 188.71 92.72 172.32 C 81.62 161.20 70.16 150.44 58.99 139.39 C 71.54 138.62 83.88 136.01 96.35 134.46 C 102.50 133.41 108.74 132.94 114.85 131.65 C 118.12 131.05 119.49 127.65 120.89 125.04 C 127.29 111.49 134.00 98.08 140.71 84.68 C 141.75 82.51 142.57 80.23 143.41 77.98 Z" />
<path fill="#fabe19" opacity="1.00" d=" M 58.25 175.19 C 62.38 173.59 67.39 176.14 68.57 180.39 C 69.93 184.51 67.30 189.29 63.12 190.40 C 56.72 192.50 50.34 194.67 43.89 196.59 C 39.80 197.85 35.15 195.06 34.16 190.94 C 33.06 187.13 35.30 182.73 39.07 181.47 C 45.43 179.27 51.85 177.25 58.25 175.19 Z" />
<path fill="#fabe19" opacity="1.00" d=" M 210.20 175.26 C 213.53 173.84 216.95 175.65 220.13 176.58 C 225.40 178.47 230.88 179.77 236.02 181.97 C 241.11 184.48 241.42 192.47 236.65 195.47 C 233.11 198.13 228.69 196.27 225.01 195.01 C 219.59 193.02 213.87 191.80 208.64 189.35 C 203.33 186.15 204.27 177.21 210.20 175.26 Z" />
<path fill="#fabe19" opacity="1.00" d=" M 134.30 230.46 C 137.83 229.10 142.12 230.73 143.94 234.03 C 145.22 236.12 144.96 238.67 145.03 241.02 C 144.92 246.71 145.11 252.40 144.96 258.09 C 145.08 262.34 141.20 266.10 136.98 265.99 C 132.77 266.07 128.89 262.30 129.04 258.05 C 128.96 251.34 128.96 244.62 129.04 237.91 C 128.96 234.62 131.22 231.53 134.30 230.46 Z" />
</g>
<g id="#ffdb37ff">
<path fill="#ffdb37" opacity="1.00" d=" M 131.39 76.37 C 132.57 73.51 135.94 71.76 138.92 72.87 C 141.33 73.53 142.40 75.94 143.41 77.98 C 142.57 80.23 141.75 82.51 140.71 84.68 C 134.00 98.08 127.29 111.49 120.89 125.04 C 119.49 127.65 118.12 131.05 114.85 131.65 C 108.74 132.94 102.50 133.41 96.35 134.46 C 83.88 136.01 71.54 138.62 58.99 139.39 C 57.47 137.89 55.51 136.36 55.50 134.00 C 55.04 130.60 57.93 127.59 61.25 127.40 C 77.32 125.08 93.39 122.70 109.46 120.43 C 117.03 105.88 123.99 91.01 131.39 76.37 Z" />
</g>
</svg>
